PathFileType   4   (X/Y/Z)
DataRate	CameraRate	NumFrames	NumMarkers	Units	OrigDataRate	OrigDataStartFrame	OrigNumFrames
120.0	120.0	8	37	mm	120.0	58	114
Frame#	Time	midhip	hip_r	hip_l	knee_r	knee_l	ankle_r	ankle_l	midasis	asis_r	asis_l	psis_r	psis_l	epicondLat_r	epicondLat_l	epicondMed_r	epicondMed_l	malleolusLat_r	malleolusLat_l	malleolusMedv_r	malleolusMedv_l	neck	subclavicle_r	subclavicle_l	sternalnotch	xyphoidprocess	thighwand_r	thighwand_l	upperleg1_r	upperleg1_l	upperleg2_r	upperleg2_l	shankwand_r	shankwand_l	lowerleg1_r	lowerleg1_l	toe_r	toe_l
 	 	X1	Y1	Z1	X2	Y2	Z2	X3	Y3	Z3	X4	Y4	Z4	X5	Y5	Z5	X6	Y6	Z6	X7	Y7	Z7	X8	Y8	Z8	X9	Y9	Z9	X10	Y10	Z10	X11	Y11	Z11	X12	Y12	Z12	X13	Y13	Z13	X14	Y14	Z14	X15	Y15	Z15	X16	Y16	Z16	X17	Y17	Z17	X18	Y18	Z18	X19	Y19	Z19	X20	Y20	Z20	X21	Y21	Z21	X22	Y22	Z22	X23	Y23	Z23	X24	Y24	Z24	X25	Y25	Z25	X26	Y26	Z26	X27	Y27	Z27	X28	Y28	Z28	X29	Y29	Z29	X30	Y30	Z30	X31	Y31	Z31	X32	Y32	Z32	X33	Y33	Z33	X34	Y34	Z34	X35	Y35	Z35	X36	Y36	Z36	X37	Y37	Z37

	58	0.59167	623.335	748.410	-248.587	606.413	754.436	-168.824	601.971	748.957	-324.293	788.154	414.995	-192.907	515.166	396.691	-349.247	845.323	60.852	-196.428	248.938	144.891	-324.948	730.889	825.469	-252.779	734.406	829.807	-129.709	727.372	821.132	-375.849	487.518	893.832	-213.932	483.728	892.989	-268.442	796.996	414.695	-121.956	507.595	403.570	-420.011	780.666	403.021	-269.188	523.586	383.625	-255.976	836.648	59.079	-158.960	234.315	157.010	-359.583	857.081	69.363	-231.571	259.113	160.030	-284.236	504.212	1316.678	-262.204	635.353	1257.722	-221.000	637.764	1258.433	-306.440	620.753	1251.747	-276.424	676.751	1181.417	-274.196	864.640	608.827	-122.248	734.500	535.398	-363.382	820.936	611.286	-137.543	690.950	559.576	-364.812	834.464	535.694	-149.962	658.581	494.378	-361.579	906.481	219.940	-167.546	302.055	234.295	-433.675	863.840	214.708	-181.944	312.121	241.022	-388.717	950.926	50.407	-194.090	283.305	53.044	-327.013
	59	0.60000	636.980	749.321	-246.225	619.731	755.828	-166.629	615.667	749.327	-322.069	799.328	416.487	-192.048	536.011	393.942	-351.973	846.506	60.594	-196.423	263.361	150.576	-326.000	743.981	827.042	-250.764	747.184	832.166	-128.251	740.778	821.919	-373.278	499.740	894.472	-213.877	496.250	892.857	-268.501	807.763	415.633	-121.052	528.667	401.538	-422.688	792.063	406.280	-268.071	546.842	376.773	-259.752	838.037	59.010	-158.900	248.920	163.065	-360.579	858.559	68.445	-231.539	274.747	163.785	-285.571	516.479	1317.710	-259.929	648.633	1259.168	-219.689	650.249	1260.145	-304.698	633.281	1253.045	-274.991	689.938	1183.242	-273.272	876.572	609.525	-119.493	753.057	537.574	-363.250	833.425	613.176	-134.847	708.760	560.188	-364.398	846.129	537.770	-147.499	678.567	493.926	-362.559	911.900	217.779	-167.882	318.035	237.785	-434.950	869.073	213.503	-182.318	329.414	243.746	-389.637	952.243	48.539	-194.408	290.949	55.395	-327.157
	60	0.60833	650.374	750.378	-243.772	632.798	757.377	-164.381	629.130	749.771	-319.781	809.626	417.795	-191.308	557.347	391.191	-354.580	847.379	60.442	-196.453	278.772	156.337	-326.973	756.791	828.783	-248.732	759.669	834.752	-126.782	753.913	822.814	-370.681	511.748	895.126	-213.894	508.565	892.718	-268.637	817.755	416.396	-120.286	550.159	399.487	-425.233	802.498	408.787	-266.602	570.425	370.946	-261.941	839.108	59.027	-158.879	264.606	169.074	-361.575	859.795	67.597	-231.540	291.033	167.977	-286.854	529.295	1318.889	-257.976	662.039	1260.511	-218.636	662.786	1261.352	-303.260	645.790	1254.333	-273.609	702.886	1184.548	-272.318	887.925	610.129	-117.026	771.824	540.024	-363.113	844.399	614.769	-132.344	726.382	560.903	-364.143	856.810	539.630	-145.290	698.384	493.474	-363.083	916.670	215.730	-168.251	335.110	240.995	-436.198	873.503	212.465	-182.969	347.598	246.383	-390.736	953.215	47.235	-194.734	300.198	58.419	-327.475
	61	0.61667	663.477	751.567	-241.306	645.577	759.066	-162.148	642.341	750.282	-317.495	818.827	418.845	-190.638	579.109	388.553	-357.005	848.003	60.360	-196.508	295.103	162.145	-327.807	769.311	830.650	-246.729	771.841	837.515	-125.321	766.781	823.785	-368.138	523.558	895.795	-213.971	520.692	892.601	-268.823	826.781	416.947	-119.607	571.989	397.507	-427.584	811.144	411.588	-265.512	594.688	365.657	-264.734	839.908	59.086	-158.890	281.298	174.986	-362.517	860.270	67.076	-231.671	307.846	173.518	-287.929	541.653	1320.359	-256.536	674.559	1261.714	-217.544	675.382	1262.170	-301.857	658.253	1255.654	-272.335	715.278	1185.414	-270.689	898.699	610.522	-114.920	790.714	542.785	-362.991	854.563	616.175	-129.650	744.865	561.660	-364.217	866.813	541.216	-143.486	719.178	493.239	-363.884	920.804	213.812	-168.580	353.234	243.917	-437.388	877.208	211.567	-183.348	365.993	249.160	-392.566	953.928	46.355	-195.052	311.256	62.053	-327.998
	62	0.62500	676.261	752.862	-238.922	658.048	760.862	-160.006	655.289	750.854	-315.288	826.807	419.604	-189.988	601.258	386.146	-359.201	848.445	60.323	-196.575	312.308	167.932	-328.447	781.546	832.588	-244.811	783.694	840.381	-123.885	779.397	824.794	-365.737	535.192	896.495	-214.090	532.644	892.538	-269.015	834.721	417.278	-118.965	594.120	395.692	-429.701	818.983	414.745	-265.705	621.821	359.022	-268.090	840.484	59.153	-158.926	298.931	180.727	-363.341	860.685	66.613	-231.772	325.062	179.571	-288.681	553.458	1321.890	-254.934	686.583	1262.884	-216.537	687.543	1263.323	-300.731	670.631	1257.003	-271.190	727.267	1186.510	-269.543	908.903	610.598	-113.204	809.646	545.895	-362.898	864.705	617.450	-127.589	763.550	562.889	-363.932	876.298	542.307	-142.420	740.907	493.552	-364.779	924.333	212.035	-168.778	372.345	246.550	-438.477	880.349	210.772	-183.720	384.984	251.927	-394.177	954.451	45.774	-195.340	324.272	66.164	-328.716
	63	0.63333	688.721	754.222	-236.710	670.199	762.723	-158.030	667.969	751.480	-313.236	833.554	420.081	-189.324	623.781	384.078	-361.140	848.780	60.309	-196.647	330.370	173.588	-328.845	793.512	834.535	-243.030	795.244	843.267	-122.491	791.780	825.804	-363.569	546.673	897.248	-214.228	544.429	892.564	-269.172	841.547	417.407	-118.322	616.546	394.130	-431.559	825.233	417.372	-266.442	649.382	353.417	-270.661	840.879	59.208	-158.982	317.459	186.194	-363.983	861.432	66.045	-231.758	342.982	185.398	-289.183	565.788	1323.267	-253.014	699.135	1264.137	-215.666	699.349	1265.163	-299.916	682.875	1258.367	-270.125	739.391	1188.160	-269.589	918.555	610.277	-111.867	828.547	549.380	-362.837	874.506	618.060	-126.622	782.192	564.734	-363.433	884.570	542.806	-141.928	762.374	494.270	-365.401	927.299	210.398	-168.763	392.368	248.893	-439.421	882.999	210.064	-184.201	405.259	254.669	-395.171	954.830	45.392	-195.580	339.324	70.559	-329.577
	64	0.64167	700.869	755.602	-234.750	682.034	764.600	-156.286	680.377	752.157	-311.408	839.167	420.312	-188.632	646.670	382.436	-362.809	849.075	60.307	-196.714	349.298	178.960	-328.978	805.234	836.433	-241.433	806.519	846.082	-121.153	803.949	826.785	-361.713	558.023	898.076	-214.361	556.051	892.715	-269.261	847.321	417.365	-117.660	639.275	392.889	-433.153	829.372	418.946	-266.410	674.906	349.998	-272.426	841.134	59.243	-159.057	336.854	191.258	-364.393	862.031	65.693	-231.738	362.427	190.443	-289.678	578.370	1324.622	-251.013	711.863	1265.258	-214.716	711.385	1267.023	-299.169	695.009	1259.741	-269.084	751.686	1189.765	-269.736	927.677	609.517	-110.860	847.351	553.253	-362.795	884.034	618.129	-126.474	800.379	566.757	-363.199	891.615	542.570	-141.480	782.866	495.415	-365.885	929.763	208.888	-168.478	413.222	250.941	-440.180	885.397	209.424	-184.221	426.815	256.872	-396.262	955.096	45.135	-195.759	356.420	75.015	-330.496
	65	0.65000	712.738	756.957	-233.102	693.565	766.446	-154.824	692.512	752.883	-309.858	843.824	420.349	-187.922	669.901	381.282	-364.201	849.384	60.305	-196.775	369.111	183.872	-328.843	816.737	838.230	-240.055	817.553	848.744	-119.878	815.921	827.716	-360.231	569.263	899.005	-214.468	567.514	893.021	-269.266	852.174	417.190	-116.982	662.311	392.021	-434.482	831.566	419.830	-265.478	699.270	348.389	-274.378	841.291	59.255	-159.150	357.102	195.776	-364.540	862.000	65.701	-231.809	382.646	195.206	-289.836	590.638	1325.999	-249.486	724.254	1266.492	-213.889	723.472	1268.608	-298.221	707.072	1261.113	-268.076	763.881	1191.230	-269.312	936.300	608.315	-110.110	865.998	557.508	-362.744	893.094	617.629	-126.359	818.538	569.360	-363.292	897.828	541.649	-140.896	803.158	497.589	-366.513	931.804	207.490	-167.907	434.828	252.684	-440.726	887.350	208.630	-183.419	448.896	258.788	-397.061	955.274	44.955	-195.872	375.506	79.305	-331.364
